<mxfile host="Electron" agent="Mozilla/5.0 (Windows NT 10.0; Win64; x64) AppleWebKit/537.36 (KHTML, like Gecko) draw.io/24.7.8 Chrome/128.0.6613.36 Electron/32.0.1 Safari/537.36" version="24.7.8">
  <diagram name="Page-1" id="0vcjlY-8bAL-dyeOVdhf">
    <mxGraphModel dx="780" dy="496" grid="1" gridSize="10" guides="1" tooltips="1" connect="1" arrows="1" fold="1" page="1" pageScale="1" pageWidth="850" pageHeight="1100" math="0" shadow="0">
      <root>
        <mxCell id="0" />
        <mxCell id="1" parent="0" />
        <mxCell id="Iz-rZH-PYPvUock96OLn-6" value="" style="edgeStyle=orthogonalEdgeStyle;rounded=0;orthogonalLoop=1;jettySize=auto;html=1;" edge="1" parent="1" source="Iz-rZH-PYPvUock96OLn-1" target="Iz-rZH-PYPvUock96OLn-5">
          <mxGeometry relative="1" as="geometry" />
        </mxCell>
        <mxCell id="Iz-rZH-PYPvUock96OLn-1" value="Start" style="strokeWidth=2;html=1;shape=mxgraph.flowchart.start_1;whiteSpace=wrap;" vertex="1" parent="1">
          <mxGeometry x="380" y="70" width="100" height="60" as="geometry" />
        </mxCell>
        <mxCell id="Iz-rZH-PYPvUock96OLn-8" value="" style="edgeStyle=orthogonalEdgeStyle;rounded=0;orthogonalLoop=1;jettySize=auto;html=1;" edge="1" parent="1" source="Iz-rZH-PYPvUock96OLn-5" target="Iz-rZH-PYPvUock96OLn-7">
          <mxGeometry relative="1" as="geometry" />
        </mxCell>
        <mxCell id="Iz-rZH-PYPvUock96OLn-5" value="Pilih Siswa" style="whiteSpace=wrap;html=1;strokeWidth=2;" vertex="1" parent="1">
          <mxGeometry x="370" y="180" width="120" height="60" as="geometry" />
        </mxCell>
        <mxCell id="Iz-rZH-PYPvUock96OLn-11" value="" style="edgeStyle=orthogonalEdgeStyle;rounded=0;orthogonalLoop=1;jettySize=auto;html=1;" edge="1" parent="1" source="Iz-rZH-PYPvUock96OLn-7" target="Iz-rZH-PYPvUock96OLn-10">
          <mxGeometry relative="1" as="geometry" />
        </mxCell>
        <mxCell id="Iz-rZH-PYPvUock96OLn-7" value="Input&lt;div&gt;1. Mata pelajaran&lt;/div&gt;&lt;div&gt;2. Tanggal pelaksanaan&lt;/div&gt;&lt;div&gt;3. Sub topic&lt;/div&gt;&lt;div&gt;4. Nilai&lt;/div&gt;" style="shape=parallelogram;perimeter=parallelogramPerimeter;whiteSpace=wrap;html=1;fixedSize=1;strokeWidth=2;" vertex="1" parent="1">
          <mxGeometry x="340" y="290" width="180" height="80" as="geometry" />
        </mxCell>
        <mxCell id="Iz-rZH-PYPvUock96OLn-10" value="Halaman Progress Siswa" style="shape=process;whiteSpace=wrap;html=1;backgroundOutline=1;strokeWidth=2;" vertex="1" parent="1">
          <mxGeometry x="370" y="420" width="120" height="60" as="geometry" />
        </mxCell>
        <mxCell id="Iz-rZH-PYPvUock96OLn-12" value="Selesai" style="strokeWidth=2;html=1;shape=mxgraph.flowchart.start_1;whiteSpace=wrap;" vertex="1" parent="1">
          <mxGeometry x="380" y="520" width="100" height="60" as="geometry" />
        </mxCell>
        <mxCell id="Iz-rZH-PYPvUock96OLn-15" style="edgeStyle=orthogonalEdgeStyle;rounded=0;orthogonalLoop=1;jettySize=auto;html=1;entryX=0.5;entryY=0;entryDx=0;entryDy=0;entryPerimeter=0;" edge="1" parent="1" source="Iz-rZH-PYPvUock96OLn-10" target="Iz-rZH-PYPvUock96OLn-12">
          <mxGeometry relative="1" as="geometry" />
        </mxCell>
      </root>
    </mxGraphModel>
  </diagram>
</mxfile>
